<svg width="24" height="24" viewBox="0 0 24 24" fill="none" xmlns="http://www.w3.org/2000/svg">
<path d="M18.4146 3.47705H15.2728C14.116 3.47705 13.1783 4.41481 13.1783 5.5716V8.71341C13.1783 9.8702 14.116 10.8079 15.2728 10.8079H18.4146C19.5714 10.8079 20.5092 9.8702 20.5092 8.71341V5.5716C20.5092 4.41481 19.5714 3.47705 18.4146 3.47705Z" stroke="#999A9D" stroke-width="1.5" stroke-linecap="round" stroke-linejoin="round"/>
<path d="M8.90182 3.47693H5.76C4.60321 3.47693 3.66545 4.41469 3.66545 5.57147V8.71329C3.66545 9.87008 4.60321 10.8078 5.76 10.8078H8.90182C10.0586 10.8078 10.9964 9.87008 10.9964 8.71329V5.57147C10.9964 4.41469 10.0586 3.47693 8.90182 3.47693Z" stroke="#999A9D" stroke-width="1.5" stroke-linecap="round" stroke-linejoin="round"/>
<path d="M18.4146 12.9897H15.2728C14.116 12.9897 13.1783 13.9275 13.1783 15.0843V18.2261C13.1783 19.3829 14.116 20.3207 15.2728 20.3207H18.4146C19.5714 20.3207 20.5092 19.3829 20.5092 18.2261V15.0843C20.5092 13.9275 19.5714 12.9897 18.4146 12.9897Z" stroke="#999A9D" stroke-width="1.5" stroke-linecap="round" stroke-linejoin="round"/>
<path d="M8.90167 12.9897H5.75985C4.60307 12.9897 3.66531 13.9275 3.66531 15.0843V18.2261C3.66531 19.3829 4.60307 20.3207 5.75985 20.3207H8.90167C10.0585 20.3207 10.9962 19.3829 10.9962 18.2261V15.0843C10.9962 13.9275 10.0585 12.9897 8.90167 12.9897Z" stroke="#999A9D" stroke-width="1.5" stroke-linecap="round" stroke-linejoin="round"/>
</svg>
